# xmcd
#
# Track frame offsets: 
#        150
#        19345
#        37840
#
# Disc length: 828 seconds
#
# Revision: 6
# Processed by: cddbd v1.4PL0 Copyright (c) Steve Scherf et al.
# Submitted via: ExactAudioCopy v0.90b4
#
DISCID=19033a03
DTITLE=Rod Stewart - Ooh La La
DYEAR=1998
DGENRE=Dance
TTITLE0=Ooh La La
TTITLE1=A Night  Like This
TTITLE2=Ten Days Of Rain
EXTD=Sony - 9870790162
EXTT0=
EXTT1=
EXTT2=
PLAYORDER=
